<mxfile host="app.diagrams.net" modified="2022-02-05T12:42:12.222Z" agent="5.0 (Windows NT 10.0; Win64; x64) AppleWebKit/537.36 (KHTML, like Gecko) Chrome/97.0.4692.99 Safari/537.36" etag="i5eqojUzMzqH5D_VUsYb" version="16.5.3" type="github">
  <diagram id="kcwRm01HUUFs8T_dLEsa" name="Page-1">
    <mxGraphModel dx="1178" dy="641" grid="1" gridSize="10" guides="1" tooltips="1" connect="1" arrows="1" fold="1" page="1" pageScale="1" pageWidth="850" pageHeight="1100" math="0" shadow="0">
      <root>
        <mxCell id="0" />
        <mxCell id="1" parent="0" />
        <mxCell id="x7RjDLN6o_C6K46DSouh-2" value="University" style="html=1;" vertex="1" parent="1">
          <mxGeometry x="340" y="276" width="110" height="50" as="geometry" />
        </mxCell>
        <mxCell id="x7RjDLN6o_C6K46DSouh-3" value="" style="endArrow=diamondThin;endFill=0;endSize=24;html=1;rounded=0;" edge="1" parent="1">
          <mxGeometry width="160" relative="1" as="geometry">
            <mxPoint x="180" y="306" as="sourcePoint" />
            <mxPoint x="340" y="306" as="targetPoint" />
          </mxGeometry>
        </mxCell>
        <mxCell id="x7RjDLN6o_C6K46DSouh-4" value="" style="endArrow=diamondThin;endFill=0;endSize=24;html=1;rounded=0;" edge="1" parent="1">
          <mxGeometry width="160" relative="1" as="geometry">
            <mxPoint x="610" y="306" as="sourcePoint" />
            <mxPoint x="450" y="306" as="targetPoint" />
          </mxGeometry>
        </mxCell>
        <mxCell id="x7RjDLN6o_C6K46DSouh-5" value="" style="endArrow=diamondThin;endFill=0;endSize=24;html=1;rounded=0;entryX=0.574;entryY=1.043;entryDx=0;entryDy=0;entryPerimeter=0;" edge="1" parent="1">
          <mxGeometry width="160" relative="1" as="geometry">
            <mxPoint x="396" y="438" as="sourcePoint" />
            <mxPoint x="396.1399999999999" y="326.15" as="targetPoint" />
          </mxGeometry>
        </mxCell>
        <mxCell id="x7RjDLN6o_C6K46DSouh-6" value="Classroom" style="html=1;" vertex="1" parent="1">
          <mxGeometry x="70" y="276" width="110" height="50" as="geometry" />
        </mxCell>
        <mxCell id="x7RjDLN6o_C6K46DSouh-7" value="Work offices" style="html=1;" vertex="1" parent="1">
          <mxGeometry x="610" y="276" width="110" height="50" as="geometry" />
        </mxCell>
        <mxCell id="x7RjDLN6o_C6K46DSouh-8" value="Departments" style="html=1;" vertex="1" parent="1">
          <mxGeometry x="340" y="436" width="110" height="50" as="geometry" />
        </mxCell>
        <mxCell id="x7RjDLN6o_C6K46DSouh-9" value="Office" style="html=1;" vertex="1" parent="1">
          <mxGeometry x="340" y="548" width="110" height="50" as="geometry" />
        </mxCell>
        <mxCell id="x7RjDLN6o_C6K46DSouh-10" value="" style="endArrow=diamondThin;endFill=0;endSize=24;html=1;rounded=0;entryX=0.574;entryY=1.043;entryDx=0;entryDy=0;entryPerimeter=0;exitX=0.5;exitY=0;exitDx=0;exitDy=0;" edge="1" parent="1">
          <mxGeometry width="160" relative="1" as="geometry">
            <mxPoint x="395" y="550" as="sourcePoint" />
            <mxPoint x="394.84999999999985" y="486.15" as="targetPoint" />
          </mxGeometry>
        </mxCell>
        <mxCell id="x7RjDLN6o_C6K46DSouh-12" value="1..*" style="text;html=1;strokeColor=none;fillColor=none;align=center;verticalAlign=middle;whiteSpace=wrap;rounded=0;" vertex="1" parent="1">
          <mxGeometry x="180" y="286" width="30" height="20" as="geometry" />
        </mxCell>
        <mxCell id="x7RjDLN6o_C6K46DSouh-13" value="1..*" style="text;html=1;strokeColor=none;fillColor=none;align=center;verticalAlign=middle;whiteSpace=wrap;rounded=0;" vertex="1" parent="1">
          <mxGeometry x="580" y="286" width="30" height="20" as="geometry" />
        </mxCell>
        <mxCell id="x7RjDLN6o_C6K46DSouh-14" value="1..*" style="text;html=1;strokeColor=none;fillColor=none;align=center;verticalAlign=middle;whiteSpace=wrap;rounded=0;" vertex="1" parent="1">
          <mxGeometry x="395" y="416" width="30" height="20" as="geometry" />
        </mxCell>
        <mxCell id="x7RjDLN6o_C6K46DSouh-15" value="1..*" style="text;html=1;strokeColor=none;fillColor=none;align=center;verticalAlign=middle;whiteSpace=wrap;rounded=0;" vertex="1" parent="1">
          <mxGeometry x="395" y="526" width="30" height="20" as="geometry" />
        </mxCell>
        <mxCell id="x7RjDLN6o_C6K46DSouh-19" value="" style="endArrow=diamondThin;endFill=0;endSize=24;html=1;rounded=0;entryX=0.5;entryY=0;entryDx=0;entryDy=0;" edge="1" parent="1" target="x7RjDLN6o_C6K46DSouh-2">
          <mxGeometry width="160" relative="1" as="geometry">
            <mxPoint x="395" y="206" as="sourcePoint" />
            <mxPoint x="460" y="386" as="targetPoint" />
          </mxGeometry>
        </mxCell>
        <mxCell id="x7RjDLN6o_C6K46DSouh-20" value="Employees" style="html=1;" vertex="1" parent="1">
          <mxGeometry x="340" y="156" width="110" height="50" as="geometry" />
        </mxCell>
        <mxCell id="x7RjDLN6o_C6K46DSouh-21" value="" style="endArrow=block;dashed=1;endFill=0;endSize=12;html=1;rounded=0;" edge="1" parent="1">
          <mxGeometry width="160" relative="1" as="geometry">
            <mxPoint x="394" y="130" as="sourcePoint" />
            <mxPoint x="394.43" y="156" as="targetPoint" />
          </mxGeometry>
        </mxCell>
        <mxCell id="x7RjDLN6o_C6K46DSouh-23" value="" style="endArrow=open;endFill=1;endSize=12;html=1;rounded=0;" edge="1" parent="1">
          <mxGeometry width="160" relative="1" as="geometry">
            <mxPoint x="395" y="130" as="sourcePoint" />
            <mxPoint x="310" y="100" as="targetPoint" />
          </mxGeometry>
        </mxCell>
        <mxCell id="x7RjDLN6o_C6K46DSouh-24" value="" style="endArrow=open;endFill=1;endSize=12;html=1;rounded=0;" edge="1" parent="1">
          <mxGeometry width="160" relative="1" as="geometry">
            <mxPoint x="395" y="130" as="sourcePoint" />
            <mxPoint x="470" y="100" as="targetPoint" />
            <Array as="points" />
          </mxGeometry>
        </mxCell>
        <mxCell id="x7RjDLN6o_C6K46DSouh-25" value="Staff" style="html=1;" vertex="1" parent="1">
          <mxGeometry x="200" y="70" width="110" height="50" as="geometry" />
        </mxCell>
        <mxCell id="x7RjDLN6o_C6K46DSouh-26" value="Professors" style="html=1;" vertex="1" parent="1">
          <mxGeometry x="470" y="80" width="110" height="50" as="geometry" />
        </mxCell>
        <mxCell id="x7RjDLN6o_C6K46DSouh-28" value="" style="endArrow=open;endFill=1;endSize=12;html=1;rounded=0;entryX=0;entryY=0.5;entryDx=0;entryDy=0;exitX=0.397;exitY=1.049;exitDx=0;exitDy=0;exitPerimeter=0;" edge="1" parent="1" source="x7RjDLN6o_C6K46DSouh-25" target="x7RjDLN6o_C6K46DSouh-9">
          <mxGeometry width="160" relative="1" as="geometry">
            <mxPoint x="170" y="170" as="sourcePoint" />
            <mxPoint x="330" y="170" as="targetPoint" />
          </mxGeometry>
        </mxCell>
        <mxCell id="x7RjDLN6o_C6K46DSouh-29" value="" style="endArrow=open;endFill=1;endSize=12;html=1;rounded=0;exitX=0.5;exitY=1;exitDx=0;exitDy=0;entryX=1;entryY=0.5;entryDx=0;entryDy=0;" edge="1" parent="1" source="x7RjDLN6o_C6K46DSouh-26" target="x7RjDLN6o_C6K46DSouh-9">
          <mxGeometry width="160" relative="1" as="geometry">
            <mxPoint x="480" y="370" as="sourcePoint" />
            <mxPoint x="640" y="370" as="targetPoint" />
          </mxGeometry>
        </mxCell>
        <mxCell id="x7RjDLN6o_C6K46DSouh-30" value="1" style="text;html=1;strokeColor=none;fillColor=none;align=center;verticalAlign=middle;whiteSpace=wrap;rounded=0;" vertex="1" parent="1">
          <mxGeometry x="250" y="126" width="20" height="4" as="geometry" />
        </mxCell>
        <mxCell id="x7RjDLN6o_C6K46DSouh-31" value="1" style="text;html=1;strokeColor=none;fillColor=none;align=center;verticalAlign=middle;whiteSpace=wrap;rounded=0;" vertex="1" parent="1">
          <mxGeometry x="530" y="140" width="20" height="4" as="geometry" />
        </mxCell>
        <mxCell id="x7RjDLN6o_C6K46DSouh-32" value="1" style="text;html=1;strokeColor=none;fillColor=none;align=center;verticalAlign=middle;whiteSpace=wrap;rounded=0;" vertex="1" parent="1">
          <mxGeometry x="310" y="544" width="20" height="4" as="geometry" />
        </mxCell>
        <mxCell id="x7RjDLN6o_C6K46DSouh-33" value="1" style="text;html=1;strokeColor=none;fillColor=none;align=center;verticalAlign=middle;whiteSpace=wrap;rounded=0;" vertex="1" parent="1">
          <mxGeometry x="460" y="546" width="20" height="4" as="geometry" />
        </mxCell>
      </root>
    </mxGraphModel>
  </diagram>
</mxfile>
